<?xml version="1.0" encoding="iso-8859-1"?>
<!-- Generator: Adobe Illustrator 19.0.0, SVG Export Plug-In . SVG Version: 6.00 Build 0)  -->
<svg version="1.1" id="Capa_1" xmlns="http://www.w3.org/2000/svg" xmlns:xlink="http://www.w3.org/1999/xlink" x="0px" y="0px"
	 viewBox="0 0 460.07 460.07" style="enable-background:new 0 0 460.07 460.07;" xml:space="preserve">
<g id="XMLID_1105_">
	<path id="XMLID_1106_" style="fill:#FFFFFF;" d="M72.409,205.971c-4.83,15.495-7.433,31.962-7.433,49.027
		c0,91.014,74.045,165.059,165.059,165.059V275H149.43v-40h60.605V126.683h20V89.95C156.09,89.95,93.341,138.827,72.409,205.971z"/>
	<path id="XMLID_1107_" style="fill:#EBE5DD;" d="M250.035,126.683V275h-20v145.057c91.014,0,165.059-74.045,165.059-165.059
		c0-17.064-2.603-33.532-7.433-49.027C366.729,138.827,303.98,89.95,230.035,89.95v36.732H250.035z"/>
	<path id="XMLID_1108_" style="fill:#3D9AE2;" d="M34.987,22.999c-41.444,34.843-46.795,96.685-11.956,138.126L173.113,34.948
		C138.273-6.493,76.431-11.844,34.987,22.999z"/>
	<path id="XMLID_1109_" style="fill:#78B9EB;" d="M425.083,22.999C383.639-11.844,321.797-6.493,286.957,34.948l150.082,126.177
		C471.879,119.684,466.528,57.842,425.083,22.999z"/>
	<polygon id="XMLID_1110_" style="fill:#C0AB91;" points="250.035,126.683 210.035,126.683 210.035,235 149.43,235 149.43,275 
		250.035,275 	"/>
	<path id="XMLID_1111_" style="fill:#3D9AE2;" d="M260.035,52.131c-9.795-1.442-19.81-2.2-30-2.2v40.02
		c73.945,0,136.694,48.877,157.626,116.021c4.831,15.495,7.434,31.964,7.434,49.029c0,91.01-74.05,165.06-165.06,165.06v40.01
		c113.08,0,205.07-92,205.07-205.07C435.105,152.119,358.943,66.693,260.035,52.131z"/>
	<path id="XMLID_1112_" style="fill:#78B9EB;" d="M64.975,255c0-17.065,2.604-33.533,7.434-49.029
		C93.341,138.827,156.09,89.95,230.035,89.95V49.93c10.19,0,20.205,0.758,30,2.2V0h-60v52.131
		C101.127,66.693,24.965,152.119,24.965,255c0,113.07,91.99,205.07,205.07,205.07v-40.01C139.025,420.06,64.975,346.01,64.975,255z"
		/>
</g>
<g>
</g>
<g>
</g>
<g>
</g>
<g>
</g>
<g>
</g>
<g>
</g>
<g>
</g>
<g>
</g>
<g>
</g>
<g>
</g>
<g>
</g>
<g>
</g>
<g>
</g>
<g>
</g>
<g>
</g>
</svg>
