<?xml version="1.0" encoding="iso-8859-1"?>
<!-- Generator: Adobe Illustrator 19.0.0, SVG Export Plug-In . SVG Version: 6.00 Build 0)  -->
<svg version="1.1" id="Layer_1" xmlns="http://www.w3.org/2000/svg" xmlns:xlink="http://www.w3.org/1999/xlink" x="0px" y="0px"
	 viewBox="0 0 511.999 511.999" style="enable-background:new 0 0 511.999 511.999;" xml:space="preserve">
<path style="fill:#507C5C;" d="M447.509,372.903c-7.743,0-15.502-1.414-22.957-4.25l-75.697-28.802
	c-7.305-2.779-10.973-10.954-8.193-18.258c2.779-7.303,10.957-10.971,18.258-8.193l75.697,28.802
	c9.033,3.437,18.863,3.151,27.679-0.807c8.816-3.957,15.565-11.11,19.002-20.143c3.436-9.033,3.15-18.862-0.807-27.679
	c-3.957-8.818-11.11-15.565-20.141-19.002l-392-149.15l-34.186,64.411l222.471,84.647c7.305,2.779,10.973,10.954,8.193,18.258
	c-2.779,7.305-10.953,10.974-18.258,8.193L9.118,210.584c-3.794-1.443-6.784-4.446-8.213-8.246c-1.428-3.8-1.156-8.029,0.746-11.615
	l47.557-89.606c3.345-6.304,10.862-9.132,17.532-6.592L470.414,248.12c16.097,6.125,28.847,18.151,35.898,33.866
	c7.051,15.713,7.562,33.234,1.436,49.33c-6.125,16.097-18.151,28.847-33.866,35.898
	C465.447,371.003,456.488,372.902,447.509,372.903z"/>
<polygon style="fill:#CFF09E;" points="126.978,85.136 77.506,66.312 14.15,197.359 110.411,233.986 "/>
<path style="fill:#507C5C;" d="M110.411,248.137c-1.7,0-3.403-0.306-5.032-0.925L9.118,210.584
	c-3.708-1.411-6.652-4.312-8.117-7.997c-1.465-3.685-1.317-7.817,0.41-11.387L64.767,60.154c3.194-6.609,10.912-9.676,17.772-7.067
	l49.472,18.824c6.031,2.295,9.746,8.377,9.031,14.791l-16.567,148.85c-0.484,4.35-2.953,8.232-6.689,10.513
	C115.538,247.436,112.981,248.137,110.411,248.137z M33.609,189.622l64.759,24.641l13.333-119.799L84.6,84.152L33.609,189.622z"/>
<polygon style="fill:#CFF09E;" points="248.443,59.092 185.997,35.331 248.871,219.887 377.763,268.929 "/>
<g>
	<path style="fill:#507C5C;" d="M377.76,283.081c-1.685,0-3.389-0.301-5.029-0.926l-128.892-49.042
		c-3.938-1.499-7.003-4.674-8.363-8.663L172.602,39.895c-1.769-5.191-0.379-10.936,3.567-14.744
		c3.947-3.808,9.734-4.995,14.86-3.045l62.447,23.76c2.914,1.108,5.379,3.147,7.015,5.802l129.32,209.838
		c3.18,5.159,2.72,11.772-1.142,16.443C385.924,281.267,381.895,283.081,377.76,283.081z M260.12,209.026l83.739,31.862
		l-104.94-170.28L209.1,59.262L260.12,209.026z"/>
	<path style="fill:#507C5C;" d="M385.421,490.818H28.99c-7.816,0-14.151-6.335-14.151-14.151c0-7.816,6.335-14.151,14.151-14.151
		h356.431c7.816,0,14.151,6.335,14.151,14.151C399.572,484.483,393.237,490.818,385.421,490.818z"/>
	<path style="fill:#507C5C;" d="M482.987,490.818h-31.485c-7.816,0-14.151-6.335-14.151-14.151c0-7.816,6.335-14.151,14.151-14.151
		h31.485c7.816,0,14.151,6.335,14.151,14.151C497.138,484.483,490.802,490.818,482.987,490.818z"/>
</g>
<g>
</g>
<g>
</g>
<g>
</g>
<g>
</g>
<g>
</g>
<g>
</g>
<g>
</g>
<g>
</g>
<g>
</g>
<g>
</g>
<g>
</g>
<g>
</g>
<g>
</g>
<g>
</g>
<g>
</g>
</svg>
