<?xml version="1.0" encoding="iso-8859-1"?>
<!-- Generator: Adobe Illustrator 19.0.0, SVG Export Plug-In . SVG Version: 6.00 Build 0)  -->
<svg version="1.1" id="Layer_1" xmlns="http://www.w3.org/2000/svg" xmlns:xlink="http://www.w3.org/1999/xlink" x="0px" y="0px"
	 viewBox="0 0 505.706 505.706" style="enable-background:new 0 0 505.706 505.706;" xml:space="preserve">
<g>
	<rect x="5.353" y="460.353" style="fill:#006DF0;" width="495" height="40"/>
	<path style="fill:#00E7F0;" d="M67.024,297.957l428.682-247.5c-16.063-27.822-46.015-45.104-78.168-45.104
		c-15.753,0-31.323,4.182-45.027,12.094L110.673,168.619l-34.682-30.623L0,181.869l77.024,133.409L67.024,297.957z"/>
	<polygon style="fill:#00E7F0;" points="266.393,205.946 294.315,321.515 393.624,264.179 294.315,321.515 	"/>
	<path style="fill:#00E7F0;" d="M391.568,133.676l114.138-65.898L391.568,133.676z"/>
	<polygon style="fill:#00D7DF;" points="77.024,315.278 266.393,205.946 294.315,321.515 393.624,264.179 391.568,133.676 
		505.706,67.778 495.706,50.457 67.024,297.957 	"/>
</g>
<g>
</g>
<g>
</g>
<g>
</g>
<g>
</g>
<g>
</g>
<g>
</g>
<g>
</g>
<g>
</g>
<g>
</g>
<g>
</g>
<g>
</g>
<g>
</g>
<g>
</g>
<g>
</g>
<g>
</g>
</svg>
