<?xml version="1.0" encoding="iso-8859-1"?>
<!-- Generator: Adobe Illustrator 19.0.0, SVG Export Plug-In . SVG Version: 6.00 Build 0)  -->
<svg version="1.1" id="Layer_1" xmlns="http://www.w3.org/2000/svg" xmlns:xlink="http://www.w3.org/1999/xlink" x="0px" y="0px"
	 viewBox="0 0 512 512" style="enable-background:new 0 0 512 512;" xml:space="preserve">
<path style="fill:#B3404A;" d="M394.248,512H117.751c-32.431,0-58.815-26.383-58.815-58.814V58.815C58.936,26.385,85.32,0,117.751,0
	h276.498c32.431,0,58.815,26.385,58.815,58.815v225.77c0,8.061-6.537,14.597-14.597,14.597s-14.597-6.537-14.597-14.597V58.815
	c0-16.333-13.288-29.621-29.621-29.621H117.751c-16.333,0-29.621,13.288-29.621,29.621v394.371
	c0,16.331,13.288,29.619,29.621,29.619h276.498c16.333,0,29.621-13.288,29.621-29.619v-80.283c0-8.061,6.537-14.597,14.597-14.597
	s14.597,6.537,14.597,14.597v80.283C453.063,485.617,426.678,512,394.248,512z"/>
<circle style="fill:#F4B2B0;" cx="255.991" cy="198.712" r="105.83"/>
<g>
	<path style="fill:#B3404A;" d="M255.999,319.134c-66.403,0-120.427-54.024-120.427-120.427S189.596,78.279,255.999,78.279
		s120.427,54.024,120.427,120.427S322.403,319.134,255.999,319.134z M255.999,107.474c-50.306,0-91.233,40.926-91.233,91.233
		s40.926,91.233,91.233,91.233s91.233-40.926,91.233-91.233S306.305,107.474,255.999,107.474z"/>
	<path style="fill:#B3404A;" d="M255.999,313.121c-34.895,0-53.153-57.558-53.153-114.415s18.258-114.415,53.153-114.415
		s53.153,57.558,53.153,114.415S290.895,313.121,255.999,313.121z M255.999,113.486c-1.591,0-7.782,4.715-13.647,19.899
		c-6.553,16.966-10.311,40.776-10.311,65.321s3.759,48.355,10.311,65.321c5.865,15.183,12.056,19.899,13.647,19.899
		s7.782-4.715,13.647-19.899c6.553-16.966,10.311-40.776,10.311-65.321s-3.759-48.355-10.311-65.321
		C263.782,118.203,257.59,113.486,255.999,113.486z"/>
	<path style="fill:#B3404A;" d="M361.829,213.304h-211.66c-8.061,0-14.597-6.537-14.597-14.597s6.537-14.597,14.597-14.597h211.66
		c8.061,0,14.597,6.537,14.597,14.597S369.891,213.304,361.829,213.304z"/>
</g>
<rect x="175.225" y="373.879" style="fill:#F4B2B0;" width="161.548" height="45.251"/>
<path style="fill:#B3404A;" d="M336.77,433.722H175.228c-8.061,0-14.597-6.537-14.597-14.597v-45.251
	c0-8.061,6.537-14.597,14.597-14.597H336.77c8.061,0,14.597,6.537,14.597,14.597v45.251
	C351.367,427.186,344.832,433.722,336.77,433.722z M189.825,404.528h132.347v-16.057H189.825V404.528z"/>
<g>
</g>
<g>
</g>
<g>
</g>
<g>
</g>
<g>
</g>
<g>
</g>
<g>
</g>
<g>
</g>
<g>
</g>
<g>
</g>
<g>
</g>
<g>
</g>
<g>
</g>
<g>
</g>
<g>
</g>
</svg>
