<?xml version="1.0" encoding="iso-8859-1"?>
<!-- Generator: Adobe Illustrator 19.0.0, SVG Export Plug-In . SVG Version: 6.00 Build 0)  -->
<svg version="1.1" id="Layer_1" xmlns="http://www.w3.org/2000/svg" xmlns:xlink="http://www.w3.org/1999/xlink" x="0px" y="0px"
	 viewBox="0 0 495 495" style="enable-background:new 0 0 495 495;" xml:space="preserve">
<g>
	<path style="fill:#00E7F0;" d="M233.619,301.034l13.881-24.729V267.5h-95.007v-51.759h40V227.5H247.5v-8.805l-13.881-24.729
		l13.881-7.792V75.552H0v123.083h20c26.944,0,48.865,21.92,48.865,48.865S46.944,296.365,20,296.365H0v123.083h247.5V308.826
		L233.619,301.034z"/>
	<polygon style="fill:#00D7DF;" points="247.5,267.5 247.5,276.305 252.443,267.5 	"/>
	<path style="fill:#00D7DF;" d="M475,198.635h20V75.552H247.5v110.622l20.999-11.788l29.815,53.114h44.193v40h-44.193
		l-29.815,53.114L247.5,308.826v110.622H495V296.365h-20c-26.944,0-48.865-21.921-48.865-48.865S448.056,198.635,475,198.635z"/>
	<polygon style="fill:#00D7DF;" points="247.5,218.695 247.5,227.5 252.443,227.5 	"/>
	<polygon style="fill:#006DF0;" points="247.5,218.695 252.443,227.5 192.493,227.5 192.493,215.741 152.493,215.741 152.493,267.5 
		252.443,267.5 247.5,276.305 233.619,301.034 247.5,308.826 268.499,320.614 298.314,267.5 342.507,267.5 342.507,227.5 
		298.314,227.5 268.499,174.386 247.5,186.174 233.619,193.966 	"/>
</g>
<g>
</g>
<g>
</g>
<g>
</g>
<g>
</g>
<g>
</g>
<g>
</g>
<g>
</g>
<g>
</g>
<g>
</g>
<g>
</g>
<g>
</g>
<g>
</g>
<g>
</g>
<g>
</g>
<g>
</g>
</svg>
